HIERARCHY
ROOT Hips
{
	OFFSET 0.000000 0.000000 0.000000 
	CHANNELS 6 Xposition Yposition Zposition Zrotation Yrotation Xrotation
	JOINT LeftUpLeg
	{
		OFFSET 1.363060 -1.794630 0.839290 
		CHANNELS 3 Zrotation Yrotation Xrotation
		JOINT LeftLeg
		{
			OFFSET 2.448110 -6.726130 0.000000 
			CHANNELS 3 Zrotation Yrotation Xrotation
			JOINT LeftFoot
			{
				OFFSET 2.562200 -7.039590 0.000000 
				CHANNELS 3 Zrotation Yrotation Xrotation
				JOINT LeftToeBase
				{
					OFFSET 0.157640 -0.433110 2.322550 
					CHANNELS 3 Zrotation Yrotation Xrotation
					End Site
					{
						OFFSET 0.000000 0.000000 0.000000 
					}
				}
			}
		}
	}
	JOINT RightUpLeg
	{
		OFFSET -1.305520 -1.794630 0.839290 
		CHANNELS 3 Zrotation Yrotation Xrotation
		JOINT RightLeg
		{
			OFFSET -2.542530 -6.985550 0.000000 
			CHANNELS 3 Zrotation Yrotation Xrotation
			JOINT RightFoot
			{
				OFFSET -2.568260 -7.056230 0.000000 
				CHANNELS 3 Zrotation Yrotation Xrotation
				JOINT RightToeBase
				{
					OFFSET -0.164730 -0.452590 2.363150 
					CHANNELS 3 Zrotation Yrotation Xrotation
					End Site
					{
						OFFSET 0.000000 0.000000 0.000000 
					}
				}
			}
		}
	}
	JOINT Spine
	{
		OFFSET 0.028270 2.035590 -0.193380 
		CHANNELS 3 Zrotation Yrotation Xrotation
		JOINT Spine1
		{
			OFFSET 0.056720 2.048850 -0.042750 
			CHANNELS 3 Zrotation Yrotation Xrotation
			JOINT Neck1
			{
				OFFSET -0.054170 1.746240 0.172020 
				CHANNELS 3 Zrotation Yrotation Xrotation
				JOINT Head
				{
					OFFSET 0.104070 1.761360 -0.123970 
					CHANNELS 3 Zrotation Yrotation Xrotation
					End Site
					{
						OFFSET 0.000000 0.000000 0.000000 
					}
				}
			}
			JOINT LeftArm
			{
				OFFSET 3.362410 1.200890 -0.311210 
				CHANNELS 3 Zrotation Yrotation Xrotation
				JOINT LeftForeArm
				{
					OFFSET 4.983000 -0.000000 -0.000000 
					CHANNELS 3 Zrotation Yrotation Xrotation
					JOINT LeftHand
					{
						OFFSET 3.483560 -0.000000 -0.000000 
						CHANNELS 3 Zrotation Yrotation Xrotation
						JOINT LeftHandIndex1
						{
							OFFSET 0.715260 -0.000000 -0.000000 
							CHANNELS 3 Zrotation Yrotation Xrotation
							End Site
							{
								OFFSET 0.000000 0.000000 0.000000 
							}
						}
					}
				}
			}
			JOINT RightArm
			{
				OFFSET -3.136600 1.374050 -0.404650 
				CHANNELS 3 Zrotation Yrotation Xrotation
				JOINT RightForeArm
				{
					OFFSET -5.241900 -0.000000 -0.000000 
					CHANNELS 3 Zrotation Yrotation Xrotation
					JOINT RightHand
					{
						OFFSET -3.444170 -0.000000 -0.000000 
						CHANNELS 3 Zrotation Yrotation Xrotation
						JOINT RightHandIndex1
						{
							OFFSET -0.622530 -0.000000 -0.000000 
							CHANNELS 3 Zrotation Yrotation Xrotation
							End Site
							{
								OFFSET 0.000000 0.000000 0.000000 
							}
						}
					}
				}
			}
		}
	}
}
MOTION
Frames: 15
Frame Time: 0.041667
-0.028160 17.621834 -0.151481 0.763139 -2.653929 2.945376 -23.954335 -6.904416 -1.584003 -0.019334 3.313286 13.994827 -1.654444 12.138312 -12.594260 0.761100 -5.571500 -15.546100 27.268934 6.749980 -2.181937 -1.547947 -4.468856 17.489492 1.267355 -13.917740 -14.516000 -0.568300 4.828000 -13.418700 0.194835 2.316638 -0.791533 -1.827715 1.297689 0.780462 4.481415 -14.161890 -2.836972 2.708100 -6.836300 -1.128100 -79.958615 15.575866 46.722301 82.880861 -58.315970 -52.487969 -0.224559 1.317809 -1.394664 -7.125000 0.000000 0.000000 79.472903 -14.998629 44.288727 -90.621914 57.731440 -54.663471 1.259492 0.702487 10.813702 7.125000 0.000000 0.000000 
-0.028840 17.621834 -0.151190 0.732426 -2.772820 2.967877 -23.914814 -6.826832 -1.596095 -0.024478 3.300748 13.960869 -1.641286 12.123565 -12.730583 0.738400 -5.489500 -15.310100 27.307373 6.856755 -2.227166 -1.553516 -4.488632 17.543360 1.222350 -13.741197 -14.688289 -0.469100 4.392900 -12.184700 0.202688 2.361434 -0.786268 -1.807002 1.319719 0.779372 4.477546 -14.151559 -2.838282 2.710200 -6.830300 -1.121800 -79.985853 15.489577 46.707492 82.826899 -58.312162 -52.442718 -0.233391 1.324333 -1.335991 -7.125000 0.000000 0.000000 79.488770 -14.998997 44.251693 -90.708757 57.721169 -54.749071 1.261208 0.700997 10.801813 7.125000 0.000000 0.000000 
-0.030296 17.622805 -0.150510 0.697844 -2.896109 2.957585 -23.875679 -6.726622 -1.586511 -0.026292 3.293622 13.945994 -1.628073 12.093696 -12.825532 0.724600 -5.439000 -15.165100 27.360640 6.924147 -2.182096 -1.551181 -4.481293 17.524939 1.228238 -13.739132 -14.614950 -0.460500 4.352900 -12.071600 0.203005 2.420640 -0.787239 -1.798599 1.349281 0.747618 4.502146 -14.160253 -2.787657 2.718100 -6.836300 -1.087600 -79.918290 15.430884 46.800473 82.748837 -58.305597 -52.371465 -0.236437 1.326401 -1.319321 -7.125000 0.000000 0.000000 79.542433 -15.019022 44.228680 -90.751380 57.715462 -54.783143 1.259102 0.699946 10.788331 7.125000 0.000000 0.000000 
-0.026412 17.621737 -0.147015 0.729796 -2.731371 2.967871 -23.921397 -6.842465 -1.558620 -0.029279 3.284878 13.920740 -1.624121 12.042237 -12.734900 0.722300 -5.430500 -15.140600 27.302872 6.839969 -2.201697 -1.552500 -4.487085 17.541734 1.223895 -13.779863 -14.758504 -0.463500 4.366800 -12.110900 0.192160 2.347394 -0.792817 -1.832312 1.313336 0.739063 4.528576 -14.141813 -2.740514 2.719700 -6.828700 -1.046100 -79.840076 15.433160 46.860071 82.798606 -58.305161 -52.412991 -0.231714 1.319403 -1.308358 -7.125000 0.000000 0.000000 79.561243 -14.988285 44.225166 -90.718937 57.718998 -54.744973 1.255248 0.701801 10.838486 7.125000 0.000000 0.000000 
-0.021654 17.622223 -0.143616 0.763365 -2.581165 2.987181 -23.971987 -6.981139 -1.541504 -0.031214 3.282177 13.911120 -1.612940 11.977684 -12.699401 0.694900 -5.329000 -14.849400 27.248380 6.742666 -2.224655 -1.552278 -4.486887 17.540619 1.223048 -13.807388 -14.828285 -0.456500 4.334500 -12.019600 0.178454 2.291699 -0.785722 -1.881423 1.286088 0.760021 4.562497 -14.152685 -2.763458 2.734700 -6.832600 -1.040200 -79.880742 15.320315 46.798072 82.648046 -58.296454 -52.276090 -0.232311 1.317002 -1.202141 -7.125000 0.000000 0.000000 79.610563 -14.949783 44.177607 -90.739030 57.718165 -54.762542 1.256642 0.701103 10.926016 7.125000 0.000000 0.000000 
-0.022334 17.623194 -0.143713 0.730412 -2.742981 2.995341 -23.938998 -6.872451 -1.562339 -0.032053 3.279620 13.904615 -1.618583 12.028373 -12.768170 0.681600 -5.278500 -14.704700 27.284900 6.792112 -2.235110 -1.552943 -4.486821 17.539693 1.208054 -13.688519 -14.752232 -0.426600 4.191600 -11.616300 0.187348 2.346727 -0.788068 -1.858127 1.313103 0.723286 4.542500 -14.126828 -2.773334 2.724500 -6.819700 -1.044200 -79.943794 15.198320 46.738581 82.441448 -58.284434 -52.087789 -0.231972 1.320963 -1.136915 -7.125000 0.000000 0.000000 79.615987 -14.927014 44.193380 -90.757051 57.715332 -54.779475 1.256640 0.700468 10.934085 7.125000 0.000000 0.000000 
-0.026024 17.622126 -0.144490 0.717510 -3.022769 3.051057 -23.922376 -6.688010 -1.632336 -0.035093 3.270399 13.875310 -1.650345 12.185227 -12.788029 0.716600 -5.409800 -15.081300 27.304071 7.020881 -2.310622 -1.557268 -4.500955 17.567587 1.204665 -13.646521 -14.687948 -0.459300 4.347500 -12.056500 0.185370 2.466217 -0.802654 -1.820828 1.370817 0.681972 4.495847 -14.111285 -2.797708 2.689300 -6.813500 -1.069000 -79.918472 15.171205 46.758925 82.370146 -58.279638 -52.017116 -0.224280 1.318328 -1.111441 -7.125000 0.000000 0.000000 79.649833 -14.927211 44.192203 -90.778457 57.712550 -54.801094 1.256731 0.701019 10.929568 7.125000 0.000000 0.000000 
-0.027286 17.620669 -0.142159 0.824857 -3.159446 3.077577 -24.049143 -6.590953 -1.666740 -0.033569 3.275492 13.893933 -1.646979 12.186857 -12.827955 0.727400 -5.449400 -15.195000 27.178167 7.149653 -2.346687 -1.559695 -4.505172 17.568569 1.207220 -13.657852 -14.662461 -0.494000 4.506500 -12.506300 0.162872 2.538878 -0.803563 -1.782419 1.404094 0.683844 4.464828 -14.141331 -2.793979 2.666000 -6.830100 -1.079400 -79.867659 15.153946 46.826730 82.327565 -58.277352 -51.973072 -0.215133 1.312938 -1.124805 -7.125000 0.000000 0.000000 79.716864 -14.950997 44.140815 -90.813294 57.709270 -54.833946 1.256890 0.700498 10.971916 7.125000 0.000000 0.000000 
-0.025635 17.620572 -0.140314 0.854154 -3.149759 3.051493 -24.095350 -6.618590 -1.641523 -0.028721 3.290682 13.940508 -1.649373 12.217302 -12.876317 0.736900 -5.484200 -15.294800 27.140810 7.125248 -2.291371 -1.555313 -4.490202 17.529806 1.209684 -13.670166 -14.663811 -0.501400 4.539600 -12.599800 0.166949 2.529494 -0.799139 -1.760601 1.399484 0.664611 4.458896 -14.172015 -2.774225 2.674500 -6.845000 -1.073900 -79.886327 15.125395 46.840722 82.265106 -58.274320 -51.916941 -0.213214 1.312580 -1.120773 -7.125000 0.000000 0.000000 79.704121 -14.991201 44.139812 -90.863142 57.701620 -54.872835 1.252339 0.696727 11.020618 7.125000 0.000000 0.000000 
-0.024470 17.620863 -0.138664 0.739269 -3.129550 3.034076 -23.968336 -6.608396 -1.632650 -0.026604 3.294715 13.949639 -1.649850 12.215184 -12.870469 0.742000 -5.502600 -15.347800 27.271202 7.099999 -2.250354 -1.554267 -4.489741 17.536568 1.219314 -13.706558 -14.636852 -0.508000 4.568600 -12.682200 0.192675 2.525899 -0.802172 -1.776310 1.400543 0.631756 4.472081 -14.203942 -2.735896 2.692800 -6.860800 -1.051900 -79.913457 15.102911 46.828726 82.225831 -58.271822 -51.884966 -0.219006 1.316920 -1.058886 -7.125000 0.000000 0.000000 79.719724 -15.041851 44.079077 -90.871562 57.699008 -54.872289 1.246389 0.696908 11.049852 7.125000 0.000000 0.000000 
-0.023596 17.622611 -0.135751 0.651615 -3.112940 3.040490 -23.873560 -6.608376 -1.640997 -0.024401 3.301179 13.965406 -1.638280 12.169901 -12.900095 0.749900 -5.531300 -15.430400 27.371201 7.072136 -2.238214 -1.555691 -4.496156 17.559884 1.224260 -13.722015 -14.618127 -0.498600 4.526800 -12.563800 0.201510 2.524834 -0.802078 -1.822906 1.401970 0.624916 4.470490 -14.235464 -2.757924 2.697900 -6.875700 -1.071500 -79.894383 15.106388 46.814145 82.243271 -58.272943 -51.900307 -0.220392 1.315551 -0.937224 -7.125000 0.000000 0.000000 79.777591 -15.072770 44.025728 -90.870677 57.699960 -54.865128 1.244527 0.696222 11.099802 7.125000 0.000000 0.000000 
-0.023208 17.625233 -0.133711 0.651823 -3.096600 3.064070 -23.880622 -6.635654 -1.669188 -0.021018 3.312969 13.994522 -1.641899 12.181073 -12.879707 0.743200 -5.506900 -15.360200 27.375274 7.009109 -2.265360 -1.557331 -4.499190 17.568603 1.218602 -13.670555 -14.572218 -0.453700 4.321000 -11.981600 0.205633 2.524085 -0.806104 -1.815264 1.402248 0.620918 4.470997 -14.268837 -2.744002 2.700500 -6.892700 -1.067800 -79.857906 15.170688 46.838646 82.387188 -58.280807 -52.031118 -0.220771 1.316728 -0.853146 -7.125000 0.000000 0.000000 79.810774 -15.090536 43.971091 -90.850121 57.702207 -54.842953 1.244221 0.694636 11.134375 7.125000 0.000000 0.000000 
-0.023111 17.625815 -0.132935 0.681346 -3.088048 3.062546 -23.912820 -6.625278 -1.665972 -0.022285 3.307286 13.978165 -1.657189 12.223556 -12.798259 0.764800 -5.584800 -15.584300 27.350162 6.990848 -2.275685 -1.561655 -4.509121 17.597042 1.214807 -13.643133 -14.554315 -0.426200 4.189800 -11.611400 0.205905 2.527784 -0.799752 -1.796949 1.404008 0.623110 4.484790 -14.314675 -2.750262 2.709800 -6.915000 -1.069000 -79.807196 15.265171 46.876389 82.632744 -58.293601 -52.254945 -0.221411 1.323250 -0.785290 -7.125000 0.000000 0.000000 79.858047 -15.105615 43.896950 -90.884489 57.698381 -54.874982 1.244214 0.693427 11.160349 7.125000 0.000000 0.000000 
-0.021945 17.625136 -0.130604 0.652483 -3.102122 3.056520 -23.883671 -6.599274 -1.649483 -0.025073 3.296907 13.949698 -1.669483 12.271826 -12.775519 0.789900 -5.673500 -15.839900 27.383141 7.008079 -2.280523 -1.565765 -4.521912 17.635005 1.208564 -13.622853 -14.589443 -0.414200 4.131300 -11.446300 0.207297 2.537467 -0.804195 -1.822386 1.409878 0.594943 4.489084 -14.344250 -2.784959 2.715000 -6.929000 -1.093100 -79.785365 15.326015 46.859712 82.770758 -58.300467 -52.380395 -0.222776 1.329480 -0.684945 -7.125000 0.000000 0.000000 79.912333 -15.125873 43.836417 -90.927400 57.694705 -54.925802 1.250816 0.694801 11.126143 7.125000 0.000000 0.000000 
-0.021169 17.625815 -0.126817 0.627309 -3.107817 3.054150 -23.859884 -6.622753 -1.627858 -0.024433 3.299451 13.958916 -1.665390 12.273720 -12.835071 0.783500 -5.650800 -15.774500 27.410324 7.001926 -2.259069 -1.564492 -4.518935 17.629955 1.203293 -13.603984 -14.619484 -0.394300 4.032100 -11.167000 0.213707 2.549602 -0.824562 -1.830147 1.416978 0.529639 4.466695 -14.370980 -2.806476 2.706300 -6.942600 -1.120300 -79.802962 15.376538 46.844577 82.768819 -58.301052 -52.378703 -0.222824 1.328503 -0.569151 -7.125000 0.000000 0.000000 79.962697 -15.198245 43.774972 -91.059854 57.678891 -55.068365 1.260858 0.694267 11.005108 7.125000 0.000000 0.000000 
